<svg width="18" height="18" viewBox="0 0 18 18" fill="none" xmlns="http://www.w3.org/2000/svg">
<g clip-path="url(#clip0_3309_83336)">
<path d="M12.0364 9.54149C11.2264 8.27792 9.84694 7.52344 8.34621 7.52344C6.84562 7.52344 5.46601 8.27792 4.65618 9.54149L2.70446 12.5862C2.38064 13.0914 2.23122 13.675 2.27228 14.2736C2.31335 14.8723 2.54117 15.4299 2.93105 15.8862C3.3212 16.3424 3.83674 16.6542 4.4219 16.7879C5.00706 16.9216 5.60691 16.8646 6.1565 16.623L6.19234 16.6071C7.57538 16.0109 9.15618 16.0163 10.5358 16.623C10.8916 16.7794 11.2686 16.8585 11.649 16.8585C11.8558 16.8585 12.0638 16.835 12.27 16.7881C12.8551 16.6544 13.3707 16.3427 13.761 15.8865C14.151 15.4303 14.3789 14.8726 14.4201 14.2738C14.4613 13.675 14.3119 13.0914 13.9881 12.5861L12.0364 9.54149ZM12.9591 15.2007C12.4627 15.781 11.6596 15.9645 10.9605 15.6572C10.1297 15.2917 9.23789 15.1091 8.3458 15.1091C7.45453 15.1091 6.56286 15.2916 5.73257 15.6566L5.70894 15.6671C5.0153 15.9604 4.22401 15.7746 3.73305 15.2007C3.23716 14.6202 3.18072 13.7984 3.5927 13.1556L5.54456 10.1109C6.15952 9.15147 7.20679 8.57867 8.34621 8.57867C9.48563 8.57867 10.533 9.15147 11.1481 10.1109L13.0997 13.1554C13.5118 13.7986 13.4553 14.6205 12.9591 15.2007Z" fill="#6F6C6A"/>
<path d="M3.23068 9.53551C3.81131 9.31249 4.25241 8.84461 4.47282 8.21798C4.68239 7.62169 4.66522 6.94851 4.42421 6.32229C4.18306 5.69648 3.74443 5.18561 3.18921 4.88363C2.6057 4.56653 1.96478 4.5149 1.38512 4.73833C0.218917 5.18671 -0.316254 6.62784 0.192275 7.95156C0.598495 9.00515 1.54593 9.67023 2.5038 9.67023C2.74838 9.67023 2.99365 9.62684 3.23068 9.53551ZM1.17693 7.57253C0.877273 6.7925 1.14053 5.96276 1.76414 5.72298C1.87675 5.67959 1.99582 5.65803 2.11735 5.65803C2.30495 5.65803 2.49872 5.70925 2.68521 5.81074C3.02057 5.99297 3.2885 6.30938 3.43956 6.70145C3.59048 7.0938 3.60394 7.50799 3.47732 7.86792C3.36128 8.19779 3.13922 8.44031 2.8522 8.55059L2.85165 8.55086C2.22887 8.79091 1.47754 8.35187 1.17693 7.57253Z" fill="#6F6C6A"/>
<path d="M7.01872 7.15031C8.47661 7.15031 9.66272 5.799 9.66272 4.138C9.66272 2.47659 8.47661 1.125 7.01872 1.125C5.56097 1.125 4.375 2.47659 4.375 4.138C4.375 5.799 5.56097 7.15031 7.01872 7.15031ZM7.01872 2.1801C7.89474 2.1801 8.60762 3.05846 8.60762 4.138C8.60762 5.21713 7.89474 6.09521 7.01872 6.09521C6.1427 6.09521 5.4301 5.21713 5.4301 4.138C5.4301 3.05846 6.1427 2.1801 7.01872 2.1801Z" fill="#6F6C6A"/>
<path d="M11.5848 7.88927H11.585C11.8092 7.9637 12.038 7.99927 12.2658 7.99927C13.329 7.99927 14.3652 7.22542 14.7606 6.03615C14.9882 5.35156 14.9733 4.6277 14.7184 3.99805C14.4517 3.339 13.9575 2.86055 13.3266 2.65071C12.6957 2.44115 12.013 2.52849 11.4048 2.8968C10.8237 3.24878 10.3785 3.81952 10.1512 4.5041C9.67128 5.94826 10.3144 7.46684 11.5848 7.88927ZM11.1525 4.83685C11.301 4.38985 11.5847 4.02153 11.9515 3.79933C12.2908 3.59375 12.6611 3.54143 12.9938 3.65198C13.3264 3.76266 13.5915 4.02606 13.7403 4.39383C13.9012 4.79126 13.908 5.25625 13.7593 5.70326C13.4628 6.59535 12.6366 7.12681 11.9177 6.888C11.1993 6.64905 10.856 5.72894 11.1525 4.83685Z" fill="#6F6C6A"/>
<path d="M17.1534 7.54083L17.1529 7.54042C16.1476 6.79774 14.6439 7.11964 13.8009 8.25838C12.9586 9.39766 13.0903 10.9293 14.0942 11.6725C14.4603 11.9437 14.8929 12.0734 15.3357 12.0734C16.1073 12.0734 16.9101 11.6795 17.4467 10.9552C18.2889 9.81596 18.1574 8.28433 17.1534 7.54083ZM16.5987 10.3275C16.1009 10.9995 15.2592 11.2223 14.7221 10.8245C14.1854 10.4272 14.1527 9.55737 14.6492 8.88583C14.9792 8.44006 15.4612 8.19205 15.9054 8.19205C16.1301 8.19205 16.3452 8.25549 16.5259 8.38911C17.0622 8.78682 17.0947 9.65639 16.5987 10.3275Z" fill="#6F6C6A"/>
</g>
<defs>
<clipPath id="clip0_3309_83336">
<rect width="18" height="18" fill="white"/>
</clipPath>
</defs>
</svg>
