<svg width="25" height="25" viewBox="0 0 25 25" fill="none" xmlns="http://www.w3.org/2000/svg">
<path d="M15.5 12.5C15.5 11.3954 16.3954 10.5 17.5 10.5C19.7091 10.5 21.5 12.2909 21.5 14.5C21.5 16.7091 19.7091 18.5 17.5 18.5C16.3954 18.5 15.5 17.6046 15.5 16.5V12.5Z" stroke="#6F6C6A" stroke-width="1.5"/>
<path d="M9.5 12.5C9.5 11.3954 8.60457 10.5 7.5 10.5C5.29086 10.5 3.5 12.2909 3.5 14.5C3.5 16.7091 5.29086 18.5 7.5 18.5C8.60457 18.5 9.5 17.6046 9.5 16.5V12.5Z" stroke="#6F6C6A" stroke-width="1.5"/>
<path d="M3.5 14.5V11.5C3.5 6.52944 7.52944 2.5 12.5 2.5C17.4706 2.5 21.5 6.52944 21.5 11.5V16.3462C21.5 18.3545 21.5 19.3586 21.1476 20.1417C20.7465 21.0329 20.0329 21.7465 19.1417 22.1476C18.3586 22.5 17.3545 22.5 15.3462 22.5H12.5" stroke="#6F6C6A" stroke-width="1.5" stroke-linecap="round" stroke-linejoin="round"/>
</svg>
